<?xml version="1.0" standalone="no"?>
<!DOCTYPE svg PUBLIC "-//W3C//DTD SVG 20010904//EN"
 "http://www.w3.org/TR/2001/REC-SVG-20010904/DTD/svg10.dtd">
<svg version="1.0" xmlns="http://www.w3.org/2000/svg"
 width="204.000000pt" height="204.000000pt" viewBox="0 0 204.000000 204.000000"
 preserveAspectRatio="xMidYMid meet">
<metadata>
Created by potrace 1.11, written by Peter Selinger 2001-2013
</metadata>
<g transform="translate(0.000000,204.000000) scale(0.100000,-0.100000)"
fill="#000000" stroke="none">
<path d="M176 2031 c-3 -4 -19 -11 -35 -14 -39 -8 -110 -79 -118 -118 -3 -16
-10 -32 -14 -35 -12 -7 -12 -1681 0 -1688 4 -3 11 -19 14 -35 8 -39 59 -96 99
-111 18 -6 41 -16 50 -21 23 -12 1685 -12 1692 0 3 4 19 11 35 14 39 8 96 59
111 99 6 18 16 41 21 50 12 23 12 1673 0 1696 -5 9 -15 32 -21 50 -15 40 -72
91 -111 99 -16 3 -32 10 -35 14 -7 12 -1681 12 -1688 0z m1538 -287 c14 -6 16
-78 16 -715 l0 -709 -709 0 c-637 0 -709 2 -715 16 -8 21 -8 1264 0 1342 l7
62 681 3 c375 1 686 3 693 5 6 1 18 -1 27 -4z"/>
<path d="M440 1410 l0 -199 102 -3 102 -3 57 -175 c31 -96 59 -168 63 -160 3
8 18 60 35 115 16 55 58 195 94 310 36 116 67 219 69 229 7 40 27 26 43 -31 9
-32 26 -92 39 -133 13 -41 32 -108 42 -147 10 -40 21 -73 25 -73 3 0 29 80 58
178 29 97 56 188 60 201 4 14 12 26 17 28 5 2 33 -72 62 -164 29 -93 74 -233
100 -313 l48 -145 72 -3 72 -3 0 346 0 345 -580 0 -580 0 0 -200z"/>
<path d="M977 1194 c-6 -10 -83 -262 -173 -563 -19 -63 -36 -117 -39 -120 -12
-11 -25 23 -88 219 -36 113 -76 237 -89 275 l-23 70 -62 3 -63 3 0 -316 0
-315 580 0 580 0 0 175 0 175 -109 0 c-61 0 -112 4 -115 9 -3 5 -32 94 -65
197 -32 104 -62 189 -67 189 -4 0 -13 -20 -20 -45 -38 -141 -100 -331 -109
-333 -9 -2 -32 63 -102 293 -16 52 -32 89 -36 84z"/>
</g>
</svg>
